# xmcd
#
# Track frame offsets: 
#        182
#        12187
#        27942
#        43920
#        63402
#        79417
#        94270
#        113705
#        132577
#        145095
#        158025
#        171345
#        184845
#        205432
#        217872
#        242202
#        259070
#        274360
#
# Disc length: 3835 seconds
#
# Revision: 3
# Processed by: cddbd v1.5.2PL0 Copyright (c) Steve Scherf et al.
# Submitted via: ExactAudioCopyFreeDBPlugin 1.0
#
DISCID=0e0ef912
DTITLE=Various Artist - Deutsche Trucker Hits
DYEAR=1900
DGENRE=country
TTITLE0=Hallo, guten Morgen Deutschland
TTITLE1=Auf der Autobahn
TTITLE2=Ich möcht´ so gern Dave Dudley hör´n
TTITLE3=Er ist ein Kerl (der 30 Tonner Diesel)
TTITLE4=Wir sind die Fahrer
TTITLE5=Das Lied vom Hufeisen
TTITLE6=Mama, laß deinen Sohn nie Ferfahrer werden
TTITLE7=Sie kocht den besten Kaffee von ganz Texas
TTITLE8=Sechs Tage jede Woche
TTITLE9=Hey, Boß ich brauch´ mehr Geld
TTITLE10=Ruby
TTITLE11=Die Frau mir dem Gurt
TTITLE12=Ruf Teddybär eins-vier
TTITLE13=Der wilde, wilde Westen
TTITLE14=Wenn ich nur ein Trucker wär
TTITLE15=Lucille
TTITLE16=Mich ruft die Autobahn
TTITLE17=Take it easy, altes Haus
EXTD=
EXTT0=
EXTT1=
EXTT2=
EXTT3=
EXTT4=
EXTT5=
EXTT6=
EXTT7=
EXTT8=
EXTT9=
EXTT10=
EXTT11=
EXTT12=
EXTT13=
EXTT14=
EXTT15=
EXTT16=
EXTT17=
PLAYORDER=
